# xmcd CD database file
#
# Track frame offsets:
#	150
#	10827
#	63437
#	113419
#	143469
#	213488
#	253551
#	286221
#	306946
#
# Disc length: 4147 seconds
#
# Revision: 0
# Processed by: cddbd v1.5.2PL0 Copyright (c) Steve Scherf et al.
# Submitted via: CDex 1.70beta3
#
DISCID=75103109
DTITLE=真剣で私に恋しなさい！！ Drama CD vol1 - 真剣で私に恋しなさい！！ Drama CD vol1
DYEAR=2010
DGENRE=ドラマCD
TTITLE0=新たな始まり
TTITLE1=校内放送、LOVEかわかみ
TTITLE2=ホワイトデーの男達、でおじゃる
TTITLE3=川神きのこの恐怖！
TTITLE4=不死川心の高貴なる反撃！！なのじゃ！！
TTITLE5=名探偵達の激突！
TTITLE6=伊予ちゃん、２年のクラスを尋ねるの巻
TTITLE7=不毛地帯
TTITLE8=次回予告
EXTD=YEAR: 2010
EXTT0=
EXTT1=
EXTT2=
EXTT3=
EXTT4=
EXTT5=
EXTT6=
EXTT7=
EXTT8=
PLAYORDER=
